{
  "accessors": [
    {
      "bufferView": 3,
      "componentType": 5126,
      "count": 1360,
      "max": [
        0.9927791357040405,
        1.8976069688796997,
        0.21316255629062653
      ],
      "min": [
        -0.9927791357040405,
        -0.0031767680775374174,
        -0.14677178859710693
      ],
      "type": "VEC3"
    },
    {
      "bufferView": 3,
      "byteOffset": 16320,
      "componentType": 5126,
      "count": 1360,
      "max": [
        0.9985342025756836,
        1.0,
        1.0
      ],
      "min": [
        -0.9985342025756836,
        -1.0,
        -1.0
      ],
      "type": "VEC3"
    },
    {
      "bufferView": 2,
      "componentType": 5126,
      "count": 1360,
      "max": [
        0.9872016906738281,
        0.9891815185546875
      ],
      "min": [
        0.0,
        0.0
      ],
      "type": "VEC2"
    },
    {
      "bufferView": 1,
      "componentType": 5125,
      "count": 1968,
      "type": "SCALAR"
    },
    {
      "bufferView": 5,
      "componentType": 5126,
      "count": 23,
      "max": [
        1.0,
        0.9931470155715942,
        0.9939513206481934,
        0.0,
        0.9940087199211121,
        1.0,
        0.9994059801101685,
        0.0,
        0.03889458626508713,
        1.0,
        1.0,
        0.0,
        1.653618335723877,
        0.9880475401878357,
        0.5486860871315002,
        1.0
      ],
      "min": [
        -1.0,
        -0.9931471943855286,
        -0.9939513206481934,
        0.0,
        -0.9940086007118225,
        -0.999828577041626,
        -1.0,
        0.0,
        -0.03889458626508713,
        -1.0000003576278687,
        0.0,
        0.0,
        -1.653618335723877,
        -1.6287039518356323,
        -0.641068160533905,
        1.0
      ],
      "type": "MAT4"
    },
    {
      "bufferView": 0,
      "componentType": 5123,
      "count": 1360,
      "type": "VEC4"
    },
    {
      "bufferView": 4,
      "componentType": 5126,
      "count": 1360,
      "max": [
        1.0,
        0.5,
        0.0,
        0.0
      ],
      "min": [
        0.5,
        0.0,
        0.0,
        0.0
      ],
      "type": "VEC4"
    }
  ],
  "asset": {
    "extras": {
      "author": "alanh1213 (https://sketchfab.com/alanh1213)",
      "license": "CC-BY-4.0 (http://creativecommons.org/licenses/by/4.0/)",
      "source": "https://sketchfab.com/3d-models/ps1low-poly-human-richard-177c3ebb448c4b91b7d99bb6a6fba157",
      "title": "PS1/Low poly human - Richard"
    },
    "generator": "Sketchfab-16.16.0",
    "version": "2.0"
  },
  "bufferViews": [
    {
      "buffer": 0,
      "byteLength": 10880,
      "byteStride": 8,
      "name": "shortBufferViews",
      "target": 34962
    },
    {
      "buffer": 0,
      "byteLength": 7872,
      "byteOffset": 10880,
      "name": "floatBufferViews",
      "target": 34963
    },
    {
      "buffer": 0,
      "byteLength": 10880,
      "byteOffset": 18752,
      "byteStride": 8,
      "name": "floatBufferViews",
      "target": 34962
    },
    {
      "buffer": 0,
      "byteLength": 32640,
      "byteOffset": 29632,
      "byteStride": 12,
      "name": "floatBufferViews",
      "target": 34962
    },
    {
      "buffer": 0,
      "byteLength": 21760,
      "byteOffset": 62272,
      "byteStride": 16,
      "name": "floatBufferViews",
      "target": 34962
    },
    {
      "buffer": 0,
      "byteLength": 1472,
      "byteOffset": 84032,
      "name": "floatBufferViews"
    }
  ],
  "buffers": [
    {
      "byteLength": 85504,
      "uri": "scene.bin"
    }
  ],
  "extensionsUsed": [
    "KHR_materials_unlit"
  ],
  "images": [
    {
      "uri": "textures/H_Body_baseColor.png"
    }
  ],
  "materials": [
    {
      "doubleSided": true,
      "extensions": {
        "KHR_materials_unlit": {}
      },
      "name": "H_Body",
      "pbrMetallicRoughness": {
        "baseColorTexture": {
          "index": 0
        },
        "metallicFactor": 0.0
      }
    }
  ],
  "meshes": [
    {
      "name": "Object_0",
      "primitives": [
        {
          "attributes": {
            "JOINTS_0": 5,
            "NORMAL": 1,
            "POSITION": 0,
            "TEXCOORD_0": 2,
            "WEIGHTS_0": 6
          },
          "indices": 3,
          "material": 0,
          "mode": 4
        }
      ]
    }
  ],
  "nodes": [
    {
      "children": [
        1
      ],
      "matrix": [
        1.0,
        0.0,
        0.0,
        0.0,
        0.0,
        2.220446049250313e-16,
        -1.0,
        0.0,
        0.0,
        1.0,
        2.220446049250313e-16,
        0.0,
        0.0,
        0.0,
        0.0,
        1.0
      ],
      "name": "Sketchfab_model"
    },
    {
      "children": [
        2
      ],
      "name": "root"
    },
    {
      "children": [
        3
      ],
      "matrix": [
        1.0,
        0.0,
        0.0,
        0.0,
        0.0,
        2.220446049250313e-16,
        1.0,
        0.0,
        0.0,
        -1.0,
        2.220446049250313e-16,
        0.0,
        0.0,
        0.0,
        0.0,
        1.0
      ],
      "name": "GLTF_SceneRootNode"
    },
    {
      "children": [
        4
      ],
      "name": "Armature_Richard_23"
    },
    {
      "children": [
        5,
        7,
        6
      ],
      "name": "GLTF_created_0"
    },
    {
      "children": [
        8,
        20,
        21,
        22,
        24,
        26,
        28
      ],
      "name": "GLTF_created_0_rootJoint"
    },
    {
      "name": "Body_22"
    },
    {
      "mesh": 0,
      "name": "Object_7",
      "skin": 0
    },
    {
      "children": [
        9,
        16,
        18
      ],
      "name": "spine1_11",
      "translation": [
        0.0,
        0.9591483473777771,
        0.0
      ]
    },
    {
      "children": [
        10,
        12,
        14
      ],
      "name": "spine2_6",
      "rotation": [
        -0.004292712081223726,
        1.1920816689325875e-07,
        -5.117310464264335e-10,
        0.9999908208847046
      ],
      "scale": [
        1.0,
        0.9999999403953552,
        1.0
      ],
      "translation": [
        2.220446049250313e-16,
        0.19872599840164185,
        -5.29375996729052e-23
      ]
    },
    {
      "children": [
        11
      ],
      "name": "neck_1",
      "rotation": [
        0.05082960054278374,
        1.1905516572596753e-07,
        1.8178083038833392e-08,
        0.9987073540687561
      ],
      "scale": [
        1.0,
        0.9999999403953552,
        1.0
      ],
      "translation": [
        -6.312340650183046e-10,
        0.4780470132827759,
        0.002647558692842722
      ]
    },
    {
      "name": "head_0",
      "rotation": [
        0.11977513134479523,
        4.3165354645692544e-14,
        5.7113211937576125e-08,
        0.9928010702133179
      ],
      "translation": [
        2.565077158653544e-14,
        0.05121652036905289,
        -8.614733815193176e-09
      ]
    },
    {
      "children": [
        13
      ],
      "name": "shoulder.L_3",
      "rotation": [
        -0.04103747382760048,
        0.04726183041930199,
        -0.7431814074516296,
        0.6661558747291565
      ],
      "scale": [
        0.9999997615814209,
        1.000000238418579,
        1.0
      ],
      "translation": [
        0.1482955813407898,
        0.3912152051925659,
        0.0033589263912290335
      ]
    },
    {
      "name": "foearm.L_2",
      "rotation": [
        0.08223243057727814,
        0.0033128249924629927,
        -0.00019991150475107133,
        0.9966076612472534
      ],
      "scale": [
        0.9999998211860657,
        0.9999998807907104,
        1.0
      ],
      "translation": [
        1.0017737395173754e-07,
        0.33529675006866455,
        -3.534584402942187e-09
      ]
    },
    {
      "children": [
        15
      ],
      "name": "shoulder.R_5",
      "rotation": [
        -0.04103709012269974,
        -0.04726128280162811,
        0.7431813478469849,
        0.666155993938446
      ],
      "scale": [
        0.9999995231628418,
        0.9999999403953552,
        1.0
      ],
      "translation": [
        -0.1482955515384674,
        0.39121508598327637,
        0.0033588558435440063
      ]
    },
    {
      "name": "foearm.R_4",
      "rotation": [
        0.08223074674606323,
        -0.0033128103241324425,
        0.00019985248218290508,
        0.996607780456543
      ],
      "scale": [
        0.9999999403953552,
        1.000000238418579,
        1.0000001192092896
      ],
      "translation": [
        -2.0520484156349994e-07,
        0.33529672026634216,
        -5.2605866329713535e-09
      ]
    },
    {
      "children": [
        17
      ],
      "name": "thigh.L_8",
      "rotation": [
        0.3031670153141022,
        -0.010786156170070171,
        -0.9527859687805176,
        0.013136293739080429
      ],
      "scale": [
        1.000001311302185,
        1.0000005960464478,
        1.000001072883606
      ],
      "translation": [
        0.08380823582410812,
        0.03261232376098633,
        -2.1752983414558003e-08
      ]
    },
    {
      "name": "calf.L_7",
      "rotation": [
        -0.02013542130589485,
        -2.7689251510309987e-05,
        -0.01724640280008316,
        0.9996485114097595
      ],
      "scale": [
        0.9999995827674866,
        0.9999997019767761,
        0.9999998211860657
      ],
      "translation": [
        -4.967286026946738e-10,
        0.4096005856990814,
        5.779040801456858e-09
      ]
    },
    {
      "children": [
        19
      ],
      "name": "thigh.R_10",
      "rotation": [
        0.28313687443733215,
        0.010825123637914658,
        0.9589239358901978,
        0.013460077345371246
      ],
      "scale": [
        1.0000014305114746,
        1.0000004768371582,
        1.0000009536743164
      ],
      "translation": [
        -0.08380823582410812,
        0.03261232376098633,
        -2.1752983414558003e-08
      ]
    },
    {
      "name": "calf.R_9",
      "rotation": [
        -0.020135419443249702,
        2.768967351585161e-05,
        0.01724640466272831,
        0.9996485114097595
      ],
      "scale": [
        0.9999995827674866,
        0.9999997019767761,
        0.9999998807907104
      ],
      "translation": [
        -9.004107681676032e-09,
        0.4096006453037262,
        3.385885793960597e-09
      ]
    },
    {
      "name": "RODIK.L_12",
      "rotation": [
        0.012186411768198013,
        -0.707001805305481,
        -0.7070017457008362,
        0.012186411768198013
      ],
      "translation": [
        0.1469651311635971,
        0.5825002789497375,
        0.8505315780639648
      ]
    },
    {
      "name": "RODIK.R_13",
      "rotation": [
        0.012186411768198013,
        0.707001805305481,
        0.7070017457008362,
        0.012186411768198013
      ],
      "translation": [
        -0.1469651311635971,
        0.5825002789497375,
        0.8505315780639648
      ]
    },
    {
      "children": [
        23
      ],
      "name": "PIEIK.L_15",
      "rotation": [
        -5.1953002184745856e-06,
        0.7071068286895752,
        -0.7071068286895752,
        5.1953002184745856e-06
      ],
      "scale": [
        1.0,
        0.9999997019767761,
        1.0
      ],
      "translation": [
        0.0979272648692131,
        0.10143569856882095,
        -1.969622900332979e-07
      ]
    },
    {
      "name": "foot.L_14",
      "rotation": [
        0.958493709564209,
        -0.022726498544216156,
        0.008222546428442001,
        0.28408753871917725
      ],
      "scale": [
        0.9999999403953552,
        0.9999999403953552,
        1.0000003576278687
      ],
      "translation": [
        -2.2403066068932276e-08,
        8.629241321500558e-09,
        2.0062476835391863e-07
      ]
    },
    {
      "children": [
        25
      ],
      "name": "PIEIK.R_17",
      "rotation": [
        -5.1953002184745856e-06,
        -0.7071068286895752,
        0.7071068286895752,
        5.1953002184745856e-06
      ],
      "scale": [
        1.0,
        0.9999997019767761,
        1.0
      ],
      "translation": [
        -0.0979272648692131,
        0.10143569856882095,
        -1.969622900332979e-07
      ]
    },
    {
      "name": "foot.R_16",
      "rotation": [
        0.958493709564209,
        0.022726498544216156,
        -0.008222546428442001,
        0.28408753871917725
      ],
      "scale": [
        0.9999999403953552,
        0.9999999403953552,
        1.0000003576278687
      ],
      "translation": [
        2.8100229698679868e-08,
        1.2638381896579176e-08,
        1.4468297138137132e-07
      ]
    },
    {
      "children": [
        27
      ],
      "name": "MANIK.L_19",
      "rotation": [
        -0.47174638509750366,
        0.526740312576294,
        -0.526740312576294,
        0.47174638509750366
      ],
      "scale": [
        1.0,
        0.9999999403953552,
        1.0
      ],
      "translation": [
        0.8080726861953735,
        1.4761847257614136,
        -0.0282105915248394
      ]
    },
    {
      "name": "hand.L_18",
      "rotation": [
        0.7463334798812866,
        0.06849029660224915,
        -0.07556885480880737,
        0.6577118039131165
      ],
      "scale": [
        0.9999999403953552,
        0.9999999403953552,
        0.9999999403953552
      ],
      "translation": [
        -1.5514952167450247e-07,
        -1.0263176974945054e-08,
        9.419712654334944e-08
      ]
    },
    {
      "children": [
        29
      ],
      "name": "MANIK.R_21",
      "rotation": [
        -0.47174638509750366,
        -0.526740312576294,
        0.526740312576294,
        0.47174638509750366
      ],
      "scale": [
        1.0,
        0.9999999403953552,
        1.0
      ],
      "translation": [
        -0.8080726861953735,
        1.4761847257614136,
        -0.0282105915248394
      ]
    },
    {
      "name": "hand.R_20",
      "rotation": [
        0.7463334798812866,
        -0.06849029660224915,
        0.07556885480880737,
        0.6577118039131165
      ],
      "scale": [
        0.9999999403953552,
        0.9999999403953552,
        0.9999999403953552
      ],
      "translation": [
        -1.8352746167238365e-07,
        2.040064828179311e-08,
        -3.350414345959507e-08
      ]
    }
  ],
  "samplers": [
    {
      "magFilter": 9729,
      "minFilter": 9987,
      "wrapS": 10497,
      "wrapT": 10497
    }
  ],
  "scene": 0,
  "scenes": [
    {
      "name": "Sketchfab_Scene",
      "nodes": [
        0
      ]
    }
  ],
  "skins": [
    {
      "inverseBindMatrices": 4,
      "joints": [
        5,
        8,
        9,
        10,
        11,
        12,
        13,
        14,
        15,
        16,
        17,
        18,
        19,
        20,
        21,
        22,
        23,
        24,
        25,
        26,
        27,
        28,
        29
      ],
      "skeleton": 5
    }
  ],
  "textures": [
    {
      "sampler": 0,
      "source": 0
    }
  ]
}
